<svg width="258" height="126" viewBox="0 0 258 126" fill="none" xmlns="http://www.w3.org/2000/svg">
<path d="M17.6041 1.91871C-4.10302 40.9848 -8.32541 81.1545 40.663 100.639C78.4005 115.649 130.437 89.3877 129.833 45.0753C129.689 34.4582 117.236 26.386 107.715 24.8663C92.6528 22.4623 82.2025 30.7109 76.4561 44.3958C66.0174 69.2557 72.8031 107.491 100.234 118.45C143.162 135.6 188.227 113.618 218.342 82.2428C224.34 75.9932 260.827 22.3427 231.858 44.4069C226.6 48.4113 211.338 61.0132 216.836 57.3473C225.954 51.2691 230.823 47.4741 237.721 38.607C239.09 36.8466 244.96 26.6456 246.38 32.8801C249.288 45.6453 253.165 58.126 255.785 70.9776" stroke="#151E2C" stroke-width="2.66667" stroke-linecap="round"/>
</svg>
