<svg width="40" height="40" viewBox="0 0 40 40" fill="none" xmlns="http://www.w3.org/2000/svg">
<g id="Frame 427319071">
<g id="Group 48095502">
<path id="Vector" fill-rule="evenodd" clip-rule="evenodd" d="M16.6377 20.6934C17.0672 20.6934 18.0122 20.8588 18.0122 22.087C18.0122 23.3136 16.8087 23.3796 16.6377 23.3796H14.6602V20.6934H16.6377Z" fill="#060000"/>
<path id="Vector_2" fill-rule="evenodd" clip-rule="evenodd" d="M17.4698 17.5977C17.4698 18.5101 16.6593 18.6644 16.4159 18.6644H14.6309V16.6201H16.2536C16.4151 16.6201 17.4698 16.6845 17.4698 17.5977Z" fill="#060000"/>
<path id="Vector_3" fill-rule="evenodd" clip-rule="evenodd" d="M25.5278 18.4092C26.1554 18.414 26.5317 18.5628 26.8268 18.8189C27.1227 19.075 27.2993 19.4847 27.3582 19.9978H23.5805C23.5559 19.1705 24.5065 18.4021 25.5278 18.4092Z" fill="#060000"/>
<path id="Vector_4" fill-rule="evenodd" clip-rule="evenodd" d="M30.0116 2.5C34.1472 2.5 37.5 5.85284 37.5 9.98841V30.0116C37.5 34.1472 34.1472 37.5 30.0116 37.5H9.98841C5.85284 37.5 2.5 34.1472 2.5 30.0116V9.98841C2.5 5.85284 5.85284 2.5 9.98841 2.5H30.0116ZM23.4403 13.8352C23.0553 13.8352 22.7443 14.147 22.7443 14.5312C22.7443 14.9155 23.0553 15.2273 23.4403 15.2273H27.6165C28.0015 15.2273 28.3125 14.9155 28.3125 14.5312C28.3125 14.147 28.0015 13.8352 27.6165 13.8352H23.4403ZM17.1061 25.3844C17.5405 25.3836 20.7955 25.2548 20.7955 22.2535C20.7955 20.3174 19.6015 19.6834 18.9508 19.4599C19.3843 19.2364 20.1106 18.674 20.1106 17.1698C20.1106 14.3403 17.4307 14.4318 16.889 14.4318H11.8967V25.3844H17.1061ZM29.5375 22.1263C29.6226 19.7168 29.1135 16.6193 25.4648 16.6193C24.4323 16.6193 21.392 17.0966 21.392 21.0938C21.392 24.7926 24.2024 25.5682 25.5793 25.5682C27.6666 25.5682 29.0435 24.1014 29.4253 22.8151H27.2657C26.9578 23.154 26.4464 23.5525 25.3622 23.4403C24.0123 23.3003 23.6511 22.0499 23.6511 22.0499L27.7191 22.1263H29.5375Z" fill="#060000"/>
</g>
</g>
</svg>
