<svg width="40" height="40" viewBox="0 0 40 40" fill="none" xmlns="http://www.w3.org/2000/svg">
<g id="Frame 427319069">
<g id="Group 48095504">
<path id="Vector" d="M37.4993 13.5L33.3327 15.7917L29.166 19.75V33.3333H34.9993C36.3802 33.3333 37.4993 32.2142 37.4993 30.8333V13.5Z" fill="#4CAF50"/>
<path id="Vector_2" d="M2.5 13.5L5.51167 14.925L10.8333 19.75V33.3333H5C3.61917 33.3333 2.5 32.2142 2.5 30.8333V13.5Z" fill="#1E88E5"/>
<path id="Vector_3" d="M29.1667 9.33386L20 16.2089L10.8333 9.33386L10 14.1672L10.8333 19.7505L20 26.6255L29.1667 19.7505L30 14.1672L29.1667 9.33386Z" fill="#E53935"/>
<path id="Vector_4" d="M2.5 10.2487V13.5003L10.8333 19.7503V9.33366L8.23 7.38283C7.61 6.91783 6.85667 6.66699 6.08167 6.66699C4.10333 6.66699 2.5 8.27033 2.5 10.2487Z" fill="#C62828"/>
<path id="Vector_5" d="M37.4993 10.2487V13.5003L29.166 19.7503V9.33366L31.7693 7.38283C32.3893 6.91783 33.1427 6.66699 33.9177 6.66699C35.896 6.66699 37.4993 8.27033 37.4993 10.2487Z" fill="#FBC02D"/>
</g>
</g>
</svg>
