<svg width="319" height="78" viewBox="0 0 319 78" fill="none" xmlns="http://www.w3.org/2000/svg">
<path d="M5.42961 56.3335V12.0228H12.9811V49.5933H33.5138V56.3335H5.42961ZM67.9833 40.7312C67.9833 41.4801 67.9209 42.4162 67.7961 43.5396H45.5783C46.036 45.7031 47.0346 47.409 48.574 48.6571C50.1134 49.8637 52.0065 50.467 54.2532 50.467C57.4153 50.467 59.9533 49.2812 61.8672 46.9097L66.7351 51.0911C63.7811 54.9189 59.4956 56.8328 53.8788 56.8328C49.3853 56.8328 45.6615 55.3974 42.7075 52.5265C39.7951 49.6141 38.3389 45.8071 38.3389 41.1056C38.3389 36.4873 39.7327 32.722 42.5203 29.8095C45.3495 26.8971 48.9068 25.4409 53.1923 25.4409C57.6441 25.4409 61.2223 26.8763 63.9267 29.7471C66.6311 32.5763 67.9833 36.2377 67.9833 40.7312ZM58.3723 33.4293C57.1241 32.3059 55.5222 31.7442 53.5667 31.7442C51.6112 31.7442 49.9262 32.2851 48.5116 33.3669C47.1386 34.4486 46.2024 35.9672 45.7032 37.9227H60.931C60.4734 36.0088 59.6204 34.511 58.3723 33.4293ZM97.5356 25.8777H104.525V56.3335H97.8476V52.2769H97.7228C95.4761 55.3141 92.2516 56.8328 88.0494 56.8328C83.7639 56.8328 80.2274 55.3974 77.4398 52.5265C74.6938 49.6557 73.3208 45.8903 73.3208 41.2304C73.3208 36.6537 74.7146 32.8884 77.5022 29.9343C80.2898 26.9387 83.7847 25.4409 87.987 25.4409C91.9812 25.4409 95.1224 26.8139 97.4108 29.5599H97.5356V25.8777ZM89.1727 50.467C91.5859 50.467 93.6246 49.6141 95.2889 47.9082C96.9947 46.2024 97.8476 43.9972 97.8476 41.2928C97.8476 38.5884 97.0155 36.3209 95.3513 34.4902C93.7286 32.6595 91.6691 31.7442 89.1727 31.7442C86.6764 31.7442 84.5961 32.6179 82.9318 34.3654C81.2676 36.1129 80.4354 38.422 80.4354 41.2928C80.4354 43.9972 81.2468 46.2024 82.8694 47.9082C84.492 49.6141 86.5932 50.467 89.1727 50.467ZM129.884 25.4409H130.758V33.242C129.676 33.1588 128.969 33.1172 128.636 33.1172C126.056 33.1172 124.018 33.9493 122.52 35.6136C121.064 37.2362 120.335 39.3373 120.335 41.9169V56.3335H113.346V25.8777H120.335V30.496H120.398C122.853 27.1259 126.015 25.4409 129.884 25.4409ZM153.854 25.4409C157.349 25.4409 160.074 26.5018 162.029 28.6237C164.026 30.7457 165.025 34.0117 165.025 38.422V56.3335H158.035V40.2319C158.035 37.153 157.473 34.9687 156.35 33.6789C155.268 32.3891 153.625 31.7442 151.42 31.7442C149.007 31.7442 147.093 32.5555 145.678 34.1782C144.263 35.8008 143.556 38.0892 143.556 41.0432V56.3335H136.566V25.8777H143.556V30.1216H143.619C146.24 27.0011 149.651 25.4409 153.854 25.4409ZM211.319 12.0228H218.87V56.3335H211.319V26.6266H211.256L199.086 47.7834H194.156L182.049 26.6266H181.986V56.3335H174.435V12.0228H181.986L196.59 38.5468H196.715L211.319 12.0228ZM251.182 25.8777H258.172V56.3335H251.494V52.2769H251.369C249.123 55.3141 245.898 56.8328 241.696 56.8328C237.41 56.8328 233.874 55.3974 231.086 52.5265C228.34 49.6557 226.967 45.8903 226.967 41.2304C226.967 36.6537 228.361 32.8884 231.149 29.9343C233.936 26.9387 237.431 25.4409 241.633 25.4409C245.628 25.4409 248.769 26.8139 251.057 29.5599H251.182V25.8777ZM242.819 50.467C245.232 50.467 247.271 49.6141 248.935 47.9082C250.641 46.2024 251.494 43.9972 251.494 41.2928C251.494 38.5884 250.662 36.3209 248.998 34.4902C247.375 32.6595 245.316 31.7442 242.819 31.7442C240.323 31.7442 238.243 32.6179 236.578 34.3654C234.914 36.1129 234.082 38.422 234.082 41.2928C234.082 43.9972 234.893 46.2024 236.516 47.9082C238.139 49.6141 240.24 50.467 242.819 50.467ZM276.041 56.8328C273.379 56.8328 271.298 55.9798 269.801 54.274C268.303 52.5681 267.554 50.051 267.554 46.7225V31.8066H263.809V25.8777H267.554V15.7674L274.544 15.0185V25.8777H283.468V31.8066H274.544V46.036C274.544 47.5754 274.772 48.6779 275.23 49.3436C275.688 49.9677 276.437 50.2798 277.477 50.2798C278.85 50.2798 280.348 49.8429 281.97 48.9692L283.78 55.0229C281.575 56.2295 278.996 56.8328 276.041 56.8328ZM316.158 40.7312C316.158 41.4801 316.096 42.4162 315.971 43.5396H293.753C294.211 45.7031 295.209 47.409 296.749 48.6571C298.288 49.8637 300.181 50.467 302.428 50.467C305.59 50.467 308.128 49.2812 310.042 46.9097L314.91 51.0911C311.956 54.9189 307.67 56.8328 302.053 56.8328C297.56 56.8328 293.836 55.3974 290.882 52.5265C287.97 49.6141 286.514 45.8071 286.514 41.1056C286.514 36.4873 287.907 32.722 290.695 29.8095C293.524 26.8971 297.082 25.4409 301.367 25.4409C305.819 25.4409 309.397 26.8763 312.101 29.7471C314.806 32.5763 316.158 36.2377 316.158 40.7312ZM306.547 33.4293C305.299 32.3059 303.697 31.7442 301.741 31.7442C299.786 31.7442 298.101 32.2851 296.686 33.3669C295.313 34.4486 294.377 35.9672 293.878 37.9227H309.106C308.648 36.0088 307.795 34.511 306.547 33.4293Z" fill="#1769E5"/>
<path d="M3.92871 70.5498H136.888" stroke="#1769E5" stroke-width="5.4269" stroke-linecap="round"/>
<circle cx="151.812" cy="70.5497" r="4.2963" fill="#1769E5" stroke="#1769E5" stroke-width="4.97466"/>
<circle cx="167.188" cy="70.5497" r="4.2963" fill="#1769E5" stroke="#1769E5" stroke-width="4.97466"/>
<circle cx="154.075" cy="72.8105" r="2.26121" fill="#F4F9FD"/>
<circle cx="164.926" cy="72.8105" r="2.26121" fill="#F4F9FD"/>
<path d="M182.112 70.5498H315.071" stroke="#1769E5" stroke-width="5.4269" stroke-linecap="round"/>
</svg>
