<svg width="40" height="40" viewBox="0 0 40 40" fill="none" xmlns="http://www.w3.org/2000/svg">
<path d="M37.5 32.6389C37.5 35.3242 35.3242 37.5 32.6389 37.5H7.36111C4.67681 37.5 2.5 35.3242 2.5 32.6389V7.36111C2.5 4.67583 4.67681 2.5 7.36111 2.5H32.6389C35.3242 2.5 37.5 4.67583 37.5 7.36111V32.6389Z" fill="#0078D4"/>
<path opacity="0.05" d="M25.8336 32.6389V22.8204C25.8336 21.1783 25.0373 20.1973 23.7024 20.1973C22.9101 20.1973 22.3277 20.6436 21.9729 21.5234C21.9563 21.5857 21.933 21.8394 21.9427 22.6065L21.9447 32.6389H15.1391V14.1666H21.9447V15.1982C22.9383 14.5128 24.1565 14.1666 25.5788 14.1666C29.9995 14.1666 32.6381 17.1737 32.6381 22.2108L32.6391 32.6389H25.8336ZM7.36133 32.6389V14.1666H10.7223C8.77494 14.1666 7.36133 12.7355 7.36133 10.7629C7.36133 8.79219 8.79827 7.36108 10.7777 7.36108C12.7338 7.36108 14.127 8.75233 14.1669 10.7434C14.1669 12.7307 12.729 14.1666 10.7495 14.1666H14.1669V32.6389H7.36133Z" fill="black"/>
<path opacity="0.07" d="M26.3199 32.1532V22.8208C26.3199 20.9027 25.3175 19.7117 23.7027 19.7117C22.4436 19.7117 21.8214 20.5983 21.522 21.3421C21.4422 21.5356 21.4529 22.3036 21.4568 22.6313L21.4588 32.1532H15.6254V14.6532H21.4588V16.2457C22.2317 15.4456 23.4761 14.6532 25.579 14.6532C29.6945 14.6532 32.1522 17.4785 32.1522 22.2113L32.1532 32.1532H26.3199ZM7.84766 32.1532V14.6532H13.681V32.1532H7.84766ZM10.7225 13.681C9.0571 13.681 7.84766 12.454 7.84766 10.7634C7.84766 9.07363 9.08043 7.84766 10.7779 7.84766C12.454 7.84766 13.647 9.04252 13.681 10.7536C13.681 12.454 12.4482 13.681 10.7497 13.681H10.7225Z" fill="black"/>
<path d="M8.33398 15.1386H13.1951V31.6663H8.33398V15.1386ZM10.75 13.1941H10.7227C9.27218 13.1941 8.33398 12.113 8.33398 10.7626C8.33398 9.38301 9.30135 8.33301 10.7782 8.33301C12.2569 8.33301 13.1679 9.38301 13.1951 10.7626C13.1951 12.112 12.2569 13.1941 10.75 13.1941ZM31.6673 31.6663H26.8062V22.8201C26.8062 20.6831 25.6152 19.2248 23.7029 19.2248C22.2436 19.2248 21.4541 20.2087 21.0711 21.1595C20.9311 21.4998 20.9729 22.4409 20.9729 22.9163V31.6663H16.1118V15.1386H20.9729V17.6819C21.6738 16.5969 22.7715 15.1386 25.5793 15.1386C29.0579 15.1386 31.6663 17.3261 31.6663 22.2105L31.6673 31.6663Z" fill="white"/>
</svg>
