<svg width="214" height="196" viewBox="0 0 214 196" fill="none" xmlns="http://www.w3.org/2000/svg">
<g clip-path="url(#clip0_247_1932)">
<path d="M57.5274 97.331L54.0683 96.1581C50.8726 95.0532 48.6373 93.9568 47.3794 92.8519C46.8053 92.4017 46.3382 91.8297 46.0119 91.1771C45.6856 90.5246 45.5083 89.8077 45.4926 89.0783C45.4916 88.4098 45.6613 87.7522 45.9855 87.1677C46.3097 86.5832 46.7778 86.0911 47.3454 85.7381C48.8337 84.7985 50.5769 84.3441 52.3345 84.4377C54.0897 84.3602 55.8163 84.9017 57.213 85.9676C58.502 87.0433 59.4573 88.4644 59.9667 90.0642L70.5822 85.5851C70.0592 84.1043 69.3872 82.6805 68.5764 81.3355C67.6678 79.7904 66.4805 78.4273 65.0747 77.3154C63.4659 76.0552 61.6594 75.0702 59.7287 74.4002C57.297 73.59 54.744 73.2047 52.1815 73.2613C49.5776 73.2278 46.9882 73.6536 44.5322 74.5192C42.3688 75.2694 40.3673 76.423 38.6338 77.9188C37.0191 79.3434 35.7317 81.1004 34.8601 83.0693C33.9665 85.0719 33.5115 87.2424 33.5258 89.4352C33.4973 91.4098 33.9065 93.3661 34.7241 95.1637C35.4838 96.8336 36.5212 98.3625 37.7924 99.6852C39.0503 100.987 40.48 102.111 42.0419 103.025C43.4757 103.892 44.9899 104.618 46.5635 105.193L50.0227 106.451C51.7102 107.056 53.3642 107.751 54.9777 108.533C56.0959 109.068 57.1507 109.726 58.1224 110.496C58.8407 111.069 59.4215 111.795 59.8222 112.621C60.1659 113.403 60.3397 114.249 60.3322 115.103C60.3464 115.931 60.1285 116.746 59.7032 117.457C59.2913 118.132 58.7409 118.711 58.0884 119.157C57.3961 119.622 56.6239 119.957 55.8106 120.143C54.9228 120.356 54.0125 120.462 53.0994 120.457C50.2097 120.457 47.98 119.59 46.4105 117.856C44.7467 115.972 43.5784 113.702 43.0109 111.253L31.418 115.817C32.9932 121.058 35.6817 125.081 39.4837 127.886C43.4322 130.742 48.2107 132.22 53.0824 132.093C55.4145 132.083 57.7321 131.725 59.9582 131.03C62.2289 130.358 64.3595 129.281 66.2476 127.852C68.1294 126.408 69.6848 124.584 70.8117 122.497C72.0446 120.14 72.6533 117.507 72.5795 114.848C72.5795 110.23 71.2706 106.547 68.6529 103.799C66.0351 101.051 62.3267 98.8948 57.5274 97.331Z" fill="#B42025"/>
<path d="M93.5378 74.5283H81.2734V130.835H93.5378V74.5283Z" fill="#B42025"/>
<path d="M127.713 119.158C127.02 119.623 126.248 119.957 125.435 120.143C124.547 120.357 123.637 120.463 122.724 120.458C119.834 120.458 117.604 119.591 116.035 117.857C114.371 115.972 113.203 113.703 112.635 111.253L101.076 115.817C102.651 121.059 105.337 125.082 109.133 127.886C113.083 130.74 117.861 132.218 122.732 132.093C125.064 132.084 127.382 131.726 129.608 131.031C131.878 130.357 134.008 129.28 135.897 127.852C137.779 126.409 139.335 124.584 140.461 122.498C141.694 120.141 142.303 117.507 142.229 114.848C142.229 110.231 140.92 106.548 138.303 103.8C135.685 101.051 131.988 98.8757 127.211 97.2722L123.752 96.0993C120.556 94.9944 118.321 93.898 117.063 92.7931C116.489 92.343 116.022 91.7709 115.696 91.1184C115.369 90.4658 115.192 89.7489 115.176 89.0195C115.175 88.3511 115.345 87.6934 115.669 87.1089C115.993 86.5244 116.462 86.0323 117.029 85.6793C118.517 84.7397 120.261 84.2854 122.018 84.3789C123.773 84.3014 125.5 84.8429 126.897 85.9088C128.179 86.973 129.134 88.3786 129.65 89.9629L140.266 85.4838C139.743 84.003 139.071 82.5792 138.26 81.2342C137.346 79.7074 136.159 78.362 134.758 77.2651C133.15 76.0049 131.343 75.0199 129.412 74.3499C124.466 72.7916 119.154 72.8333 114.233 74.4689C112.07 75.2191 110.068 76.3727 108.334 77.8686C106.72 79.2931 105.432 81.0501 104.561 83.0191C103.667 85.0216 103.212 87.1921 103.226 89.3849C103.196 91.3496 103.6 93.2968 104.408 95.0879C105.164 96.7578 106.198 98.2869 107.468 99.6095C108.716 100.904 110.131 102.027 111.675 102.95C113.112 103.815 114.629 104.54 116.205 105.117L119.664 106.375C121.351 106.98 123.005 107.675 124.619 108.457C125.737 108.992 126.792 109.651 127.764 110.42C128.479 110.995 129.06 111.721 129.463 112.545C129.807 113.327 129.981 114.173 129.973 115.027C129.988 115.855 129.77 116.671 129.344 117.381C128.936 118.085 128.379 118.691 127.713 119.158Z" fill="#B42025"/>
<path d="M155.751 125.761C157.712 127.872 160.135 129.501 162.83 130.521C165.795 131.626 168.939 132.171 172.103 132.127C175.289 132.171 178.449 131.555 181.384 130.317C184.082 129.175 186.498 127.457 188.464 125.285C190.459 123.042 191.982 120.42 192.943 117.577C194.023 114.415 194.554 111.092 194.515 107.752V74.5283H182.251V108.525C182.372 111.593 181.459 114.613 179.659 117.101C177.925 119.367 175.406 120.5 172.103 120.5C168.8 120.5 166.284 119.367 164.556 117.101C162.771 114.608 161.873 111.588 162.006 108.525V74.5283H149.725V107.718C149.669 111.229 150.2 114.725 151.297 118.061C152.231 120.909 153.748 123.531 155.751 125.761Z" fill="#B42025"/>
<path d="M60.1863 189.691C57.9747 191.178 55.3721 191.976 52.707 191.985C48.7974 191.985 45.6102 190.286 43.1709 186.801C40.7317 183.316 39.4993 177.826 39.4993 170.236C39.4993 164.796 40.1396 160.408 41.4201 157.071C42.712 153.739 44.3268 151.359 46.2901 149.914C48.109 148.525 50.3331 147.77 52.622 147.764C54.3485 147.755 56.0554 148.13 57.6195 148.861C58.965 149.417 60.1031 150.38 60.8747 151.614C59.792 151.91 58.829 152.537 58.121 153.408C57.3784 154.327 56.9895 155.482 57.0246 156.663C56.997 157.295 57.1144 157.926 57.3678 158.506C57.6211 159.087 58.0038 159.602 58.4865 160.011C59.4894 160.845 60.7609 161.286 62.0646 161.252C62.7142 161.277 63.3619 161.167 63.9673 160.93C64.5726 160.693 65.1227 160.334 65.5833 159.875C66.0552 159.373 66.4206 158.781 66.6572 158.134C66.8939 157.487 66.9969 156.798 66.9601 156.11C66.9601 153.277 65.5209 150.923 62.6426 149.047C59.4592 147.034 55.75 146.011 51.9846 146.107C48.0392 146.044 44.168 147.182 40.8847 149.37C37.5593 151.615 34.9275 154.744 33.2864 158.405C31.4214 162.569 30.5041 167.094 30.6007 171.655C30.5178 176.086 31.4359 180.479 33.2864 184.506C34.8557 187.977 37.3862 190.927 40.5787 193.005C43.6623 194.959 47.2462 195.978 50.8967 195.937C55.4296 195.937 59.1126 194.682 61.9456 192.172C64.7065 189.796 66.7296 186.678 67.7761 183.189L66.0762 182.543C64.8245 185.432 62.783 187.91 60.1863 189.691Z" fill="#231F20"/>
<path d="M113.493 191.756C112.857 192.091 112.147 192.263 111.428 192.257C111.005 192.299 110.579 192.229 110.192 192.053C109.806 191.876 109.473 191.601 109.227 191.254C108.723 190.229 108.5 189.088 108.581 187.948V162.451C108.646 159.814 108.386 157.179 107.808 154.606C107.303 152.642 106.233 150.869 104.731 149.506C102.283 147.24 98.6737 146.107 93.9029 146.107C91.3909 146.083 88.8888 146.424 86.4746 147.118C84.4818 147.659 82.5901 148.52 80.8736 149.668C79.666 150.469 78.5979 151.462 77.7119 152.608C76.9773 153.688 76.6079 154.975 76.658 156.28C76.6157 157.688 77.07 159.066 77.9414 160.173C78.4132 160.722 79.0072 161.154 79.6758 161.433C80.3443 161.712 81.0689 161.83 81.7915 161.779C83.1698 161.834 84.5167 161.359 85.5567 160.453C86.0505 159.991 86.4378 159.427 86.6918 158.801C86.9457 158.174 87.0601 157.499 87.027 156.824C87.0714 155.493 86.6304 154.191 85.7861 153.161C84.9949 152.203 83.9159 151.527 82.7094 151.232C84.4829 149.033 87.5115 147.931 91.7951 147.925C94.4893 147.925 96.5801 148.588 98.076 149.897C99.5718 151.206 100.328 153.645 100.328 157.198V162.884C100.321 163.707 100.085 164.511 99.6467 165.208C99.2085 165.904 98.5852 166.465 97.8465 166.828C95.4063 168.143 92.8446 169.219 90.1972 170.04C87.4232 170.963 84.7119 172.064 82.0805 173.338C80.0385 174.381 78.2287 175.827 76.76 177.588C75.2119 179.507 74.4118 181.923 74.5077 184.387C74.5077 187.787 75.4426 190.461 77.3125 192.41C79.1823 194.359 82.0408 195.323 85.8881 195.3C88.6821 195.345 91.4478 194.734 93.9624 193.515C96.6395 192.04 98.8371 189.828 100.294 187.141C100.181 189.264 100.796 191.363 102.037 193.09C103.204 194.558 105.252 195.291 108.181 195.291C109.637 195.34 111.086 195.076 112.431 194.518C113.883 193.794 115.254 192.916 116.519 191.9L115.559 190.353C114.92 190.89 114.228 191.36 113.493 191.756ZM100.328 184.642C97.4555 189.294 93.9992 191.62 89.9592 191.62C88.9734 191.661 87.99 191.494 87.0731 191.129C86.1563 190.765 85.3268 190.211 84.6388 189.503C83.2959 188.101 82.6159 186.019 82.6159 183.265C82.53 181.197 83.0755 179.151 84.1798 177.401C85.1444 175.939 86.4109 174.702 87.8939 173.771C89.7024 172.699 91.5888 171.765 93.5374 170.975C95.5517 170.057 97.056 169.326 98.0335 168.774C98.9607 168.268 99.7489 167.541 100.328 166.658V184.642Z" fill="#231F20"/>
<path d="M147.857 146.107C146.346 146.132 144.856 146.462 143.476 147.077C142.095 147.692 140.854 148.579 139.825 149.686C137.473 151.976 135.669 154.768 134.547 157.853V146.388C131.458 147.328 128.238 147.761 125.011 147.671C123.175 147.671 121.277 147.581 119.316 147.399V149.32C121.889 149.32 123.693 149.963 124.73 151.249C125.767 152.533 126.294 154.581 126.294 157.394V186.105C126.294 188.654 125.767 190.354 124.73 191.289C123.693 192.224 121.892 192.708 119.316 192.708V194.638C124.943 194.388 128.552 194.267 130.144 194.272C131.844 194.272 135.81 194.363 142.043 194.544L144.253 194.638V192.708C141.006 192.708 138.573 192.159 136.952 191.06C135.337 189.955 134.521 188 134.521 185.187V165.749C134.582 163.113 135.159 160.514 136.221 158.1C137.251 155.535 138.812 153.218 140.802 151.3C142.519 149.541 144.864 148.535 147.321 148.504C147.693 148.481 148.064 148.554 148.4 148.714C148.737 148.875 149.026 149.119 149.242 149.422C147.168 150.705 146.123 152.354 146.123 154.377C146.092 155.027 146.204 155.676 146.45 156.278C146.697 156.88 147.073 157.42 147.551 157.862C148.49 158.717 149.723 159.177 150.993 159.145C151.715 159.173 152.434 159.034 153.095 158.739C153.755 158.444 154.339 158.002 154.8 157.445C155.749 156.297 156.253 154.846 156.22 153.357C156.224 152.388 156.018 151.43 155.614 150.55C155.21 149.669 154.619 148.887 153.883 148.258C152.223 146.796 150.067 146.026 147.857 146.107Z" fill="#231F20"/>
<path d="M190.607 189.962C188.26 191.396 185.554 192.13 182.804 192.079C180.333 192.033 177.945 191.179 176.005 189.648C173.691 187.832 171.89 185.444 170.778 182.721C169.396 179.377 168.724 175.782 168.806 172.165C168.796 170.204 168.887 168.244 169.078 166.292H197.797C197.797 159.493 196.315 154.433 193.352 151.113C190.388 147.792 186.139 146.124 180.603 146.107C176.727 146.027 172.92 147.133 169.69 149.277C166.467 151.532 163.962 154.669 162.474 158.311C160.675 162.703 159.807 167.42 159.925 172.165C159.842 176.448 160.713 180.695 162.474 184.599C164.029 188.039 166.566 190.943 169.767 192.946C173.168 194.996 177.084 196.031 181.054 195.929C185.018 196.032 188.895 194.752 192.017 192.308C194.882 190.092 197.024 187.075 198.171 183.639L196.335 182.899C194.777 186.208 192.867 188.563 190.607 189.962ZM172.809 152.107C174.883 149.274 177.359 147.857 180.238 147.857C183.178 147.857 185.388 149.455 186.892 152.634C188.397 155.813 189.077 159.79 188.958 164.533H168.951C169.444 159.048 170.73 154.906 172.809 152.107Z" fill="#231F20"/>
<path d="M54.0762 53.1432C55.6918 50.3231 58.2362 48.1511 61.2751 46.9983C66.502 44.9075 62.8389 42.1623 62.8389 42.1623C55.3851 37.3688 48.0673 46.4714 48.0673 46.4714C42.5769 52.7523 39.4322 50.398 39.4322 50.398C35.7775 45.8255 38.7777 36.9268 38.7777 36.9268C42.7043 19.019 56.303 8.55655 56.303 8.55655C61.666 3.32955 59.3117 1.23026 59.3117 1.23026C56.1755 -2.16941 40.741 13.1291 40.741 13.1291C40.741 13.1291 32.2419 21.8918 30.1511 28.5636C28.0603 35.2355 24.6606 43.9896 24.6606 43.9896C18.2522 61.9059 0.335938 63.7162 0.335938 63.7162C7.00779 70.5156 12.1073 72.7424 12.1073 72.7424C25.8335 78.1648 34.9871 71.9774 34.9871 71.9774C45.0586 67.5239 54.0762 53.1432 54.0762 53.1432Z" fill="#B42025"/>
<path d="M46.5798 28.0194C42.7722 28.9883 42.5172 29.3623 42.5172 29.3623L40.2734 34.8952C43.4215 34.1858 46.4908 33.1637 49.4356 31.844C49.4356 31.844 52.6992 29.6427 52.4868 28.0534C52.2743 26.464 50.379 27.025 46.5798 28.0194Z" fill="#B42025"/>
<path d="M56.6689 22.8187C57.483 22.0304 58.0324 21.0089 58.2412 19.895C58.3262 18.4161 55.224 18.8836 55.224 18.8836C55.224 18.8836 51.1359 19.878 49.0451 20.473C46.9543 21.0679 46.4954 21.9943 46.4954 21.9943L43.0957 27.9947C45.6213 27.0538 48.2047 26.2759 50.83 25.6659C55.054 24.6885 56.6689 22.8187 56.6689 22.8187Z" fill="#B42025"/>
<path d="M47.9062 19.979C47.9062 19.979 54.9351 17.1912 56.5414 16.9022C58.1478 16.6133 63.5617 14.1995 63.8167 11.4203C64.0717 8.64105 61.267 9.79694 61.267 9.79694C61.267 9.79694 55.9125 10.5874 53.8642 13.0776C53.8897 13.0776 48.7137 17.8202 47.9062 19.979Z" fill="#B42025"/>
<path d="M213.224 74.7656H211.567L210.564 77.6128C210.437 78.0378 210.309 78.5223 210.165 79.0577C210.02 78.4628 209.91 78.0378 209.782 77.5874L208.754 74.7656H207.054L206.629 80.5451H207.734L207.946 77.1454C207.946 76.6099 207.946 76.0575 207.946 75.5306H208.014C208.142 76.0405 208.312 76.7204 208.414 77.1624L209.459 80.4601H210.649L211.686 77.2474C211.856 76.7204 212.026 76.0405 212.179 75.5475H212.238C212.238 76.1595 212.238 76.7119 212.281 77.1624L212.493 80.5621H213.641L213.224 74.7656Z" fill="#B42025"/>
<path d="M201.426 75.7085H203.27V80.536H204.417V75.7085H206.27V74.748H201.426V75.7085Z" fill="#B42025"/>
</g>
<defs>
<clipPath id="clip0_247_1932">
<rect width="213.333" height="195.192" fill="white" transform="translate(0.333984 0.737305)"/>
</clipPath>
</defs>
</svg>
